# xmcd CD database file generated by Grip 2.96
# 
# Track frame offsets:
#       150
#       28564
#       46494
#       90005
#       114424
#       140932
#       161586
#       186715
#       215114
#       246240
# 
# Disc length: 3500 seconds
# 
# Revision: 0
# Processed by: cddbd v1.4PL0 Copyright (c) Steve Scherf et al.
# Submitted via: Grip 2.96
# 
DISCID=910daa0a
DTITLE=The Bondi Cigars - down in the valley
DYEAR=1900
DGENRE=
TTITLE0=Someone Else Is Stepping In
TTITLE1=I Can't Sleep
TTITLE2=Bad Weather Blues
TTITLE3=Don't Think Twice, It's Alright
TTITLE4=Calling Card
TTITLE5=Ain't No Big Deal On You
TTITLE6=Got The News
TTITLE7=Alberts Alley
TTITLE8=Driving Blindly Through The Night
TTITLE9=You're A Mystery
EXTD=
EXTT0=
EXTT1=
EXTT2=
EXTT3=
EXTT4=
EXTT5=
EXTT6=
EXTT7=
EXTT8=
EXTT9=
PLAYORDER=
